<svg width="160" height="160" viewBox="0 0 160 160" fill="none" xmlns="http://www.w3.org/2000/svg">
<g clip-path="url(#clip0_38_168)">
<path fill-rule="evenodd" clip-rule="evenodd" d="M79.9949 1.66669C35.8199 1.66669 0 37.6236 0 81.9887C0 117.469 22.92 147.573 54.715 158.195C58.715 158.933 60.175 156.453 60.175 154.324C60.175 152.417 60.1049 147.367 60.0649 140.665C37.8099 145.52 33.115 129.898 33.115 129.898C29.48 120.621 24.235 118.152 24.235 118.152C16.97 113.167 24.785 113.267 24.785 113.267C32.81 113.834 37.0349 121.545 37.0349 121.545C44.1749 133.818 55.76 130.274 60.32 128.216C61.045 123.026 63.115 119.487 65.4 117.479C47.635 115.451 28.96 108.564 28.96 77.7873C28.96 69.0177 32.075 61.8493 37.195 56.2321C36.37 54.1991 33.6251 46.0369 37.9751 34.9782C37.9751 34.9782 44.695 32.8196 59.975 43.2107C66.36 41.4286 73.2001 40.5401 80.0051 40.505C86.8001 40.5401 93.645 41.4286 100.035 43.2107C115.305 32.8196 122.01 34.9782 122.01 34.9782C126.375 46.0369 123.63 54.1991 122.805 56.2321C127.935 61.8493 131.03 69.0177 131.03 77.7873C131.03 108.639 112.325 115.431 94.505 117.419C97.375 119.898 99.9351 124.798 99.9351 132.292C99.9351 143.03 99.835 151.689 99.835 154.324C99.835 156.473 101.275 158.973 105.335 158.185C137.1 147.543 160 117.459 160 81.9887C160 37.6236 124.18 1.66669 79.9949 1.66669Z" fill="#F6F4EB"/>
</g>
<defs>
<clipPath id="clip0_38_168">
<rect width="160" height="160" fill="white"/>
</clipPath>
</defs>
</svg>
