<svg width="160" height="160" viewBox="0 0 160 160" fill="none" xmlns="http://www.w3.org/2000/svg">
<g clip-path="url(#clip0_37_151)">
<path fill-rule="evenodd" clip-rule="evenodd" d="M160 152.727H124.638V101.594C124.638 88.2101 119.106 79.0732 106.943 79.0732C97.6388 79.0732 92.4647 85.239 90.0564 91.1813C89.1533 93.3142 89.2944 96.2852 89.2944 99.2563V152.727H54.2616C54.2616 152.727 54.7131 62.15 54.2616 53.9165H89.2944V69.4241C91.3641 62.6436 102.559 52.9665 120.423 52.9665C142.587 52.9665 160 67.1795 160 97.7848V152.727ZM18.8335 41.557H18.6077C7.31893 41.557 0 34.0034 0 24.4288C0 14.6679 7.53527 7.27271 19.0499 7.27271C30.555 7.27271 37.6293 14.6493 37.8551 24.4009C37.8551 33.9756 30.555 41.557 18.8335 41.557ZM4.03564 53.9165H35.2211V152.727H4.03564V53.9165Z" fill="#F6F4EB"/>
</g>
<defs>
<clipPath id="clip0_37_151">
<rect width="160" height="160" fill="white"/>
</clipPath>
</defs>
</svg>
