<svg width="134" height="108" viewBox="0 0 134 108" fill="none" xmlns="http://www.w3.org/2000/svg">
<path d="M13.6667 14L68.5238 54L120.333 14M127 28.6663V79.333C127 86.8004 127.001 90.5347 125.548 93.3868C124.27 95.8957 122.227 97.9349 119.719 99.2132C116.866 100.666 113.135 100.667 105.668 100.667H28.3346C20.8673 100.667 17.1308 100.666 14.2786 99.2132C11.7698 97.9349 9.73156 95.8957 8.45325 93.3868C7 90.5347 7 86.8004 7 79.333V28.6663C7 21.199 7 17.4657 8.45325 14.6136C9.73156 12.1048 11.7698 10.0649 14.2786 8.78656C17.1308 7.33331 20.8673 7.33331 28.3346 7.33331H105.668C113.135 7.33331 116.866 7.33331 119.719 8.78656C122.227 10.0649 124.27 12.1048 125.548 14.6136C127.001 17.4657 127 21.199 127 28.6663Z" stroke="#F5F5F5" stroke-width="13" stroke-linecap="round" stroke-linejoin="round"/>
</svg>
